<svg width="15" height="15" viewBox="0 0 15 15" fill="none" xmlns="http://www.w3.org/2000/svg">
<g clip-path="url(#clip0)">
<path d="M15 7.03126C15.0001 7.47968 14.8715 7.9187 14.6296 8.29625C14.3876 8.67379 14.0424 8.974 13.635 9.16126C13.4717 8.8747 13.2663 8.61429 13.0256 8.38876C13.3857 8.29067 13.692 8.05358 13.8772 7.72964C14.0624 7.4057 14.1114 7.02145 14.0133 6.66142C13.9152 6.30138 13.6781 5.99507 13.3542 5.80984C13.0302 5.62462 12.646 5.57567 12.2859 5.67376C12.2211 5.69132 12.1533 5.69476 12.0871 5.68385C12.0209 5.67293 11.9577 5.64792 11.902 5.6105C11.8463 5.57308 11.7992 5.52412 11.764 5.46694C11.7289 5.40976 11.7064 5.34569 11.6981 5.27907C11.6318 4.74219 11.4121 4.23582 11.0653 3.82065C10.7185 3.40549 10.2593 3.09915 9.74279 2.93836C9.22628 2.77757 8.67436 2.76915 8.15318 2.91411C7.632 3.05906 7.16369 3.35125 6.80437 3.75564C6.40378 3.73725 6.0024 3.76493 5.60812 3.83814C5.96764 3.17608 6.51815 2.6376 7.18797 2.29278C7.85779 1.94796 8.61591 1.81277 9.36364 1.90482C10.1114 1.99687 10.8141 2.31189 11.3803 2.80887C11.9464 3.30586 12.3499 3.96178 12.5381 4.69126C12.8554 4.67525 13.1726 4.7239 13.4705 4.83426C13.7684 4.94462 14.0407 5.11438 14.2709 5.33323C14.5012 5.55209 14.6846 5.81546 14.8099 6.10736C14.9352 6.39926 14.9999 6.71359 15 7.03126Z" fill="black"/>
<path d="M6.56249 4.6875C7.60035 4.6873 8.60186 5.06968 9.3755 5.76151C10.1491 6.45334 10.6406 7.40607 10.7559 8.4375H10.7812C11.4028 8.4375 11.999 8.68443 12.4385 9.12397C12.8781 9.56351 13.125 10.1596 13.125 10.7812C13.125 11.4029 12.8781 11.999 12.4385 12.4385C11.999 12.8781 11.4028 13.125 10.7812 13.125H2.81249C2.08626 13.1255 1.38798 12.8452 0.863794 12.3425C0.339613 11.8399 0.0301749 11.154 0.000254095 10.4284C-0.0296667 9.70277 0.222249 8.99371 0.703269 8.44963C1.18429 7.90555 1.85712 7.56862 2.58093 7.50938C2.87064 6.6846 3.4093 5.97013 4.12252 5.46465C4.83573 4.95916 5.68831 4.68761 6.56249 4.6875ZM9.84374 8.90625C9.8443 8.10705 9.55315 7.33512 9.02495 6.73535C8.49675 6.13558 7.76781 5.74921 6.97495 5.64875C6.18209 5.54829 5.37982 5.74065 4.71872 6.18973C4.05762 6.63881 3.58315 7.31373 3.38437 8.08781C3.35747 8.19258 3.29517 8.28482 3.20802 8.34889C3.12088 8.41297 3.01426 8.44494 2.90624 8.43937C2.6572 8.42832 2.40846 8.46703 2.17456 8.55325C1.94066 8.63948 1.72631 8.77147 1.54403 8.94152C1.36175 9.11157 1.21522 9.31626 1.11299 9.54362C1.01076 9.77098 0.954899 10.0164 0.948666 10.2656C0.942432 10.5149 0.985955 10.7628 1.07669 10.995C1.16742 11.2272 1.30354 11.4389 1.47709 11.6179C1.65064 11.7968 1.85813 11.9394 2.08742 12.0372C2.31672 12.135 2.56321 12.1861 2.81249 12.1875H10.7812C10.9806 12.187 11.1777 12.1442 11.3592 12.0618C11.5408 11.9794 11.7027 11.8593 11.8344 11.7095C11.966 11.5597 12.0642 11.3836 12.1226 11.193C12.181 11.0023 12.1982 10.8014 12.173 10.6036C12.1478 10.4058 12.0808 10.2157 11.9765 10.0457C11.8722 9.87577 11.733 9.72994 11.568 9.61792C11.4031 9.5059 11.2162 9.43023 11.0198 9.39595C10.8234 9.36166 10.6219 9.36954 10.4287 9.41906C10.3589 9.43694 10.2859 9.43849 10.2154 9.42357C10.1449 9.40866 10.0788 9.37769 10.0222 9.33307C9.96562 9.28844 9.92007 9.23138 9.88912 9.16629C9.85817 9.10121 9.84264 9.02987 9.84374 8.95781V8.90625Z" fill="black"/>
</g>
<defs>
<clipPath id="clip0">
<rect width="15" height="15" fill="white"/>
</clipPath>
</defs>
</svg>
