<svg width="16" height="16" viewBox="0 0 16 16" fill="none" xmlns="http://www.w3.org/2000/svg">
<rect width="16" height="16" rx="2.5" fill="#B1E9F9"/>
<ellipse cx="9.69579" cy="7.15274" rx="4.06982" ry="4.40897" fill="#FDEEBB"/>
<path d="M10.9912 9.44068C10.9053 8.66701 10.5591 7.94547 10.0094 7.39435C9.45969 6.84323 8.73903 6.49523 7.96558 6.40742C7.19213 6.31961 6.4118 6.49719 5.75251 6.91105C5.09323 7.32491 4.59412 7.95049 4.33702 8.68522C3.74786 8.73344 3.2002 9.00769 2.80867 9.45055C2.41714 9.89341 2.21209 10.4706 2.23644 11.0612C2.2608 11.6518 2.51267 12.2101 2.93933 12.6192C3.366 13.0284 3.93438 13.2566 4.5255 13.2561H11.0118C11.5177 13.2534 12.0019 13.0498 12.3577 12.6901C12.7136 12.3304 12.9119 11.8441 12.9092 11.3381C12.9065 10.8321 12.7029 10.348 12.3432 9.99215C11.9835 9.63632 11.4971 9.43794 10.9912 9.44068V9.44068Z" fill="#F5F5F5"/>
</svg>
