<svg width="16" height="16" viewBox="0 0 16 16" fill="none" xmlns="http://www.w3.org/2000/svg">
<rect width="16" height="16" rx="0.625" fill="#B1E9F9"/>
<ellipse cx="4.27422" cy="7.60329" rx="1.90544" ry="2.06423" fill="#FDEEBB"/>
<path d="M4.88078 8.67442C4.84058 8.3122 4.67851 7.97438 4.42114 7.71635C4.16376 7.45832 3.82635 7.2954 3.46423 7.25428C3.10211 7.21317 2.73677 7.29631 2.4281 7.49008C2.11943 7.68384 1.88576 7.97673 1.76538 8.32072C1.48955 8.3433 1.23314 8.4717 1.04983 8.67904C0.866516 8.88638 0.770514 9.1566 0.781917 9.43312C0.793319 9.70964 0.911242 9.97103 1.111 10.1626C1.31076 10.3541 1.57687 10.461 1.85363 10.4608H4.89043C5.12731 10.4595 5.35399 10.3642 5.52058 10.1958C5.68718 10.0273 5.78006 9.79966 5.77878 9.56277C5.7775 9.32589 5.68217 9.09921 5.51376 8.93261C5.34536 8.76601 5.11766 8.67314 4.88078 8.67442V8.67442Z" fill="#F5F5F5"/>
<path d="M10.7731 6.90531V9.16235H10.4676V8.13542H9.25004V9.16235H8.94448V6.90531H9.25004V7.91177H10.4676V6.90531H10.7731ZM11.6557 9.16235H11.3501V6.90531H11.6557V9.16235ZM15.1579 6.90531L14.4538 9.16235H14.1798L13.608 7.44083C13.6028 7.42403 13.5975 7.40617 13.5923 7.38727C13.5881 7.36837 13.5834 7.34842 13.5781 7.32742C13.5729 7.34842 13.5676 7.36837 13.5624 7.38727C13.5571 7.40617 13.5519 7.42403 13.5466 7.44083L12.9717 9.16235H12.6977L11.9936 6.90531H12.2472C12.2745 6.90531 12.2971 6.91213 12.3149 6.92579C12.3338 6.93944 12.3459 6.95676 12.3511 6.97776L12.8174 8.54651C12.8247 8.57486 12.8315 8.60531 12.8378 8.63786C12.8452 8.67041 12.852 8.70506 12.8583 8.74182C12.8657 8.70506 12.873 8.67041 12.8804 8.63786C12.8888 8.60426 12.8977 8.57381 12.9071 8.54651L13.4379 6.97776C13.4442 6.95991 13.4563 6.94364 13.4741 6.92894C13.4931 6.91318 13.5156 6.90531 13.5419 6.90531H13.6301C13.6574 6.90531 13.6794 6.91213 13.6962 6.92579C13.713 6.93944 13.7256 6.95676 13.734 6.97776L14.2632 8.54651C14.2727 8.57381 14.2811 8.60321 14.2884 8.63471C14.2968 8.66621 14.3047 8.69929 14.3121 8.73394C14.3173 8.69929 14.3231 8.66621 14.3294 8.63471C14.3357 8.60321 14.3425 8.57381 14.3499 8.54651L14.8177 6.97776C14.8229 6.95886 14.8345 6.94206 14.8523 6.92736C14.8712 6.91266 14.8938 6.90531 14.92 6.90531H15.1579Z" fill="#465554"/>
</svg>
