<svg width="18" height="18" viewBox="0 0 18 18" fill="none" xmlns="http://www.w3.org/2000/svg">
<path d="M13.1527 14.9028H11.4027C11.1709 14.9021 10.9487 14.8097 10.7848 14.6458C10.6208 14.4818 10.5284 14.2597 10.5277 14.0278V10.9653C10.2959 10.9646 10.0737 10.8722 9.90979 10.7083C9.74585 10.5443 9.65344 10.3222 9.65275 10.0903V7.46531C9.64954 7.29207 9.6813 7.11996 9.74612 6.95927C9.81095 6.79858 9.90751 6.65261 10.03 6.53009C10.1526 6.40757 10.2985 6.31101 10.4592 6.24619C10.6199 6.18136 10.792 6.1496 10.9652 6.15281H13.5902C13.7635 6.1496 13.9356 6.18136 14.0963 6.24619C14.257 6.31101 14.4029 6.40757 14.5255 6.53009C14.648 6.65261 14.7445 6.79858 14.8094 6.95927C14.8742 7.11996 14.906 7.29207 14.9027 7.46531V10.0903C14.9021 10.3222 14.8096 10.5443 14.6457 10.7083C14.4818 10.8722 14.2596 10.9646 14.0277 10.9653V14.0278C14.0271 14.2597 13.9346 14.4818 13.7707 14.6458C13.6068 14.8097 13.3846 14.9021 13.1527 14.9028V14.9028ZM10.9652 7.02781C10.9069 7.0243 10.8484 7.03321 10.7938 7.05396C10.7391 7.0747 10.6894 7.10681 10.6481 7.14816C10.6067 7.1895 10.5746 7.23915 10.5539 7.29382C10.5332 7.34849 10.5242 7.40694 10.5277 7.46531V10.0903H11.4027V14.0278H13.1527V10.0903H14.0277V7.46531C14.0313 7.40694 14.0223 7.34849 14.0016 7.29382C13.9809 7.23915 13.9487 7.1895 13.9074 7.14816C13.8661 7.10681 13.8164 7.0747 13.7617 7.05396C13.7071 7.03321 13.6486 7.0243 13.5902 7.02781H10.9652Z" fill="black"/>
<path d="M12.2778 5.71533C11.9317 5.71533 11.5933 5.6127 11.3055 5.4204C11.0177 5.22811 10.7934 4.9548 10.661 4.63503C10.5285 4.31526 10.4939 3.96339 10.5614 3.62392C10.6289 3.28446 10.7956 2.97264 11.0403 2.7279C11.2851 2.48315 11.5969 2.31648 11.9364 2.24896C12.2758 2.18143 12.6277 2.21609 12.9475 2.34854C13.2672 2.481 13.5406 2.7053 13.7328 2.99308C13.9251 3.28087 14.0278 3.61922 14.0278 3.96533C14.0264 4.42904 13.8416 4.87335 13.5137 5.20124C13.1858 5.52913 12.7415 5.71395 12.2778 5.71533ZM12.2778 3.09033C12.1047 3.09033 11.9355 3.14165 11.7916 3.2378C11.6478 3.33394 11.5356 3.4706 11.4694 3.63048C11.4032 3.79037 11.3858 3.9663 11.4196 4.13604C11.4533 4.30577 11.5367 4.46168 11.6591 4.58405C11.7814 4.70642 11.9373 4.78976 12.1071 4.82352C12.2768 4.85728 12.4527 4.83995 12.6126 4.77373C12.7725 4.7075 12.9092 4.59535 13.0053 4.45146C13.1015 4.30756 13.1528 4.13839 13.1528 3.96533C13.1521 3.73348 13.0597 3.51132 12.8957 3.34738C12.7318 3.18343 12.5096 3.09103 12.2778 3.09033V3.09033Z" fill="black"/>
<path d="M6.15277 10.6083V7.02783H5.27777V10.6083C4.98587 10.7115 4.73984 10.9146 4.58318 11.1817C4.42653 11.4487 4.36932 11.7626 4.42168 12.0677C4.47403 12.3729 4.63258 12.6497 4.8693 12.8493C5.10601 13.0488 5.40566 13.1583 5.71527 13.1583C6.02489 13.1583 6.32453 13.0488 6.56125 12.8493C6.79797 12.6497 6.95652 12.3729 7.00887 12.0677C7.06123 11.7626 7.00402 11.4487 6.84736 11.1817C6.6907 10.9146 6.44468 10.7115 6.15277 10.6083V10.6083Z" fill="black"/>
<path d="M5.71529 14.9028C5.1124 14.9035 4.52275 14.726 4.02038 14.3927C3.51802 14.0594 3.12533 13.5851 2.89162 13.0294C2.65792 12.4736 2.59362 11.8612 2.7068 11.269C2.81998 10.6769 3.1056 10.1313 3.52779 9.70096V4.84033C3.52779 4.26017 3.75825 3.70377 4.16849 3.29354C4.57873 2.8833 5.13512 2.65283 5.71529 2.65283C6.29545 2.65283 6.85185 2.8833 7.26208 3.29354C7.67232 3.70377 7.90279 4.26017 7.90279 4.84033V9.70096C8.32497 10.1313 8.61059 10.6769 8.72377 11.269C8.83695 11.8612 8.77265 12.4736 8.53895 13.0294C8.30524 13.5851 7.91255 14.0594 7.41019 14.3927C6.90782 14.726 6.31817 14.9035 5.71529 14.9028ZM5.71529 3.52783C5.3673 3.52818 5.03366 3.66657 4.78759 3.91264C4.54153 4.1587 4.40313 4.49234 4.40279 4.84033V10.0829L4.25754 10.2137C3.92717 10.509 3.69426 10.8976 3.58964 11.3282C3.48502 11.7587 3.51361 12.2109 3.67164 12.6249C3.82967 13.0388 4.10969 13.395 4.47462 13.6463C4.83955 13.8976 5.2722 14.0322 5.71529 14.0322C6.15838 14.0322 6.59102 13.8976 6.95595 13.6463C7.32088 13.395 7.6009 13.0388 7.75893 12.6249C7.91696 12.2109 7.94555 11.7587 7.84093 11.3282C7.73631 10.8976 7.5034 10.509 7.17304 10.2137L7.02779 10.0829V4.84033C7.02744 4.49234 6.88905 4.1587 6.64298 3.91264C6.39691 3.66657 6.06328 3.52818 5.71529 3.52783V3.52783Z" fill="black"/>
</svg>
