<svg width="17" height="16" viewBox="0 0 17 16" fill="none" xmlns="http://www.w3.org/2000/svg">
<path d="M11.8476 8.00733C11.0536 5.39613 8.71678 2.60933 8.59798 2.46853C8.57943 2.44821 8.55685 2.43199 8.53168 2.42089C8.50651 2.40979 8.4793 2.40405 8.45178 2.40405C8.42427 2.40405 8.39706 2.40979 8.37189 2.42089C8.34672 2.43199 8.32414 2.44821 8.30558 2.46853C8.18678 2.60933 5.84958 5.39573 5.05518 8.00733C4.89238 8.54293 4.78918 9.07213 4.78918 9.56853C4.78918 11.5877 6.43238 13.2305 8.45158 13.2305C10.4708 13.2305 12.1132 11.5877 12.1132 9.56853C12.1136 9.07213 12.0104 8.54333 11.8476 8.00733ZM8.45198 12.8481C6.64358 12.8481 5.17238 11.3769 5.17238 9.56893C5.17238 9.07813 5.28158 8.54773 5.45598 8.00773C6.15078 5.85773 7.92918 3.54533 8.45198 2.89533C8.97478 3.54533 10.7532 5.85773 11.4472 8.00773C11.6216 8.54813 11.7308 9.07813 11.7308 9.56893C11.7308 11.3769 10.26 12.8481 8.45198 12.8481Z" fill="hsla(0, 0%, 0%, 80%)"/>
<path d="M6.3992 8.00732C6.1992 8.51532 6.0656 9.02412 6.0656 9.48732C6.0656 10.1202 6.317 10.7271 6.7645 11.1746C7.212 11.6221 7.81894 11.8735 8.4518 11.8735C9.08466 11.8735 9.6916 11.6221 10.1391 11.1746C10.5866 10.7271 10.838 10.1202 10.838 9.48732C10.838 9.02412 10.7044 8.51532 10.5044 8.00732H6.3992Z" fill="hsla(0, 0%, 0%, 80%)"/>
</svg>
