<svg width="65" height="29" viewBox="0 0 65 29" fill="none" xmlns="http://www.w3.org/2000/svg">
<ellipse cx="18.0244" cy="12.989" rx="7.25861" ry="7.86349" fill="#FDEEBB"/>
<path d="M20.3347 17.0696C20.1816 15.6897 19.5642 14.4028 18.5837 13.4199C17.6033 12.437 16.3179 11.8163 14.9385 11.6597C13.559 11.5031 12.1673 11.8198 10.9914 12.5579C9.81559 13.2961 8.92542 14.4118 8.46687 15.7222C7.4161 15.8082 6.43934 16.2973 5.74103 17.0872C5.04272 17.877 4.67701 18.9064 4.72045 19.9598C4.76389 21.0132 5.2131 22.0089 5.97407 22.7386C6.73503 23.4683 7.74875 23.8753 8.80303 23.8745H20.3714C21.2738 23.8697 22.1373 23.5065 22.772 22.865C23.4066 22.2234 23.7604 21.3561 23.7555 20.4537C23.7507 19.5513 23.3875 18.6878 22.746 18.0532C22.1044 17.4185 21.2371 17.0647 20.3347 17.0696V17.0696Z" fill="#F5F5F5"/>
<path d="M38.064 11.402V20H36.9V16.088H32.262V20H31.098V11.402H32.262V15.236H36.9V11.402H38.064ZM41.4261 20H40.2621V11.402H41.4261V20ZM54.7673 11.402L52.0853 20H51.0413L48.8633 13.442C48.8433 13.378 48.8233 13.31 48.8033 13.238C48.7873 13.166 48.7693 13.09 48.7493 13.01C48.7293 13.09 48.7093 13.166 48.6893 13.238C48.6693 13.31 48.6493 13.378 48.6293 13.442L46.4393 20H45.3953L42.7133 11.402H43.6793C43.7833 11.402 43.8693 11.428 43.9373 11.48C44.0093 11.532 44.0553 11.598 44.0753 11.678L45.8513 17.654C45.8793 17.762 45.9053 17.878 45.9293 18.002C45.9573 18.126 45.9833 18.258 46.0073 18.398C46.0353 18.258 46.0633 18.126 46.0913 18.002C46.1233 17.874 46.1573 17.758 46.1933 17.654L48.2153 11.678C48.2393 11.61 48.2853 11.548 48.3533 11.492C48.4253 11.432 48.5113 11.402 48.6113 11.402H48.9473C49.0513 11.402 49.1353 11.428 49.1993 11.48C49.2633 11.532 49.3113 11.598 49.3433 11.678L51.3593 17.654C51.3953 17.758 51.4273 17.87 51.4553 17.99C51.4873 18.11 51.5173 18.236 51.5453 18.368C51.5653 18.236 51.5873 18.11 51.6113 17.99C51.6353 17.87 51.6613 17.758 51.6893 17.654L53.4713 11.678C53.4913 11.606 53.5353 11.542 53.6033 11.486C53.6753 11.43 53.7613 11.402 53.8613 11.402H54.7673Z" fill="white"/>
</svg>
