<svg width="18" height="17" viewBox="0 0 18 17" fill="none" xmlns="http://www.w3.org/2000/svg">
<path fill-rule="evenodd" clip-rule="evenodd" d="M8.99119 6.03515C8.85858 6.03573 8.73164 6.08897 8.63828 6.18315C8.54493 6.27733 8.49281 6.40474 8.49339 6.53735L8.51892 12.3303L6.36348 10.1928C6.31679 10.1465 6.26143 10.1099 6.20058 10.085C6.13974 10.0601 6.07458 10.0474 6.00884 10.0477C5.94309 10.048 5.87805 10.0612 5.81742 10.0866C5.75679 10.1121 5.70177 10.1492 5.65548 10.1959C5.6092 10.2426 5.57257 10.2979 5.54768 10.3588C5.52279 10.4196 5.51012 10.4848 5.51041 10.5505C5.5107 10.6163 5.52394 10.6813 5.54937 10.7419C5.57479 10.8026 5.61191 10.8576 5.6586 10.9039L8.67179 13.8906C8.71844 13.937 8.77378 13.9737 8.83464 13.9986C8.89549 14.0236 8.96067 14.0363 9.02644 14.036C9.0922 14.0357 9.15727 14.0224 9.2179 13.9969C9.27853 13.9715 9.33354 13.9343 9.37978 13.8875L12.3665 10.8743C12.46 10.78 12.5122 10.6525 12.5116 10.5197C12.511 10.3869 12.4577 10.2598 12.3634 10.1663C12.2691 10.0729 12.1416 10.0207 12.0088 10.0213C11.876 10.0218 11.7489 10.0752 11.6554 10.1695L9.51891 12.3259L9.49338 6.53294C9.4928 6.40034 9.43956 6.27339 9.34538 6.18004C9.2512 6.08668 9.12379 6.03457 8.99119 6.03515ZM15.9801 3.50434C15.9807 3.63694 15.9286 3.76435 15.8352 3.85853C15.7419 3.95271 15.6149 4.00595 15.4823 4.00653L2.48244 4.06381C2.34983 4.06439 2.22242 4.01227 2.12824 3.91892C2.03406 3.82556 1.98082 3.69862 1.98024 3.56601C1.97966 3.43341 2.03177 3.306 2.12513 3.21182C2.21848 3.11764 2.34543 3.0644 2.47803 3.06382L15.4779 3.00654C15.6105 3.00596 15.7379 3.05808 15.8321 3.15143C15.9263 3.24478 15.9795 3.37173 15.9801 3.50434Z" fill="#97F6D8" fill-opacity="0.75"/>
</svg>
