<svg width="18" height="18" viewBox="0 0 18 18" fill="none" xmlns="http://www.w3.org/2000/svg">
<path d="M9.43622 8.77783L13.0062 5.60464C13.0725 5.54567 13.1193 5.46795 13.1403 5.38179C13.1614 5.29563 13.1558 5.20509 13.1242 5.12219C13.0927 5.03929 13.0367 4.96794 12.9636 4.9176C12.8906 4.86726 12.804 4.84032 12.7153 4.84033H11.4028V2.65283H10.5278V5.71533H11.5647L8.77779 8.19246L5.99091 5.71533H7.02779V2.65283H6.15279V4.84033H4.84029C4.75158 4.84032 4.66497 4.86726 4.59193 4.9176C4.5189 4.96794 4.46289 5.03929 4.43133 5.12219C4.39977 5.20509 4.39416 5.29563 4.41524 5.38179C4.43632 5.46795 4.48309 5.54567 4.54935 5.60464L8.11935 8.77783L4.54935 11.951C4.48309 12.01 4.43632 12.0877 4.41524 12.1739C4.39416 12.26 4.39977 12.3506 4.43133 12.4335C4.46289 12.5164 4.5189 12.5877 4.59193 12.6381C4.66497 12.6884 4.75158 12.7153 4.84029 12.7153H6.15279V14.9028H7.02779V11.8403H5.99091L8.77779 9.36321L11.5647 11.8403H10.5278V14.9028H11.4028V12.7153H12.7153C12.804 12.7153 12.8905 12.6882 12.9635 12.6379C13.0364 12.5875 13.0924 12.5162 13.1239 12.4333C13.1554 12.3504 13.161 12.2599 13.1399 12.1738C13.1188 12.0876 13.072 12.01 13.0058 11.951L9.43622 8.77783Z" fill="black"/>
</svg>
