<svg width="16" height="16" viewBox="0 0 16 16" fill="none" xmlns="http://www.w3.org/2000/svg">
<g clip-path="url(#clip0)">
<path d="M4.158 12.0249C4.22033 12.0457 4.27796 12.0786 4.32758 12.1216C4.3772 12.1647 4.41785 12.2171 4.4472 12.2759C4.47655 12.3347 4.49402 12.3987 4.49862 12.4643C4.50322 12.5298 4.49485 12.5956 4.474 12.6579L3.974 14.1579C3.92848 14.279 3.83783 14.3777 3.72108 14.4333C3.60433 14.4889 3.47057 14.4972 3.34789 14.4563C3.2252 14.4154 3.12313 14.3285 3.06311 14.214C3.00309 14.0994 2.98979 13.9661 3.026 13.8419L3.526 12.3419C3.56778 12.2161 3.65783 12.112 3.77635 12.0525C3.89487 11.9931 4.03215 11.9832 4.158 12.0249ZM7.158 12.0249C7.22033 12.0457 7.27796 12.0786 7.32758 12.1216C7.3772 12.1647 7.41785 12.2171 7.4472 12.2759C7.47655 12.3347 7.49402 12.3987 7.49862 12.4643C7.50322 12.5298 7.49485 12.5956 7.474 12.6579L6.474 15.6579C6.42848 15.779 6.33783 15.8777 6.22108 15.9333C6.10433 15.9889 5.97057 15.9972 5.84789 15.9563C5.7252 15.9154 5.62313 15.8285 5.56311 15.714C5.50309 15.5994 5.48979 15.4661 5.526 15.3419L6.526 12.3419C6.56778 12.2161 6.65783 12.112 6.77635 12.0525C6.89487 11.9931 7.03215 11.9832 7.158 12.0249ZM10.158 12.0249C10.2203 12.0457 10.278 12.0786 10.3276 12.1216C10.3772 12.1647 10.4179 12.2171 10.4472 12.2759C10.4765 12.3347 10.494 12.3987 10.4986 12.4643C10.5032 12.5298 10.4949 12.5956 10.474 12.6579L9.974 14.1579C9.92848 14.279 9.83783 14.3777 9.72108 14.4333C9.60433 14.4889 9.47057 14.4972 9.34789 14.4563C9.2252 14.4154 9.12313 14.3285 9.06311 14.214C9.00309 14.0994 8.98979 13.9661 9.026 13.8419L9.526 12.3419C9.56778 12.2161 9.65783 12.112 9.77635 12.0525C9.89487 11.9931 10.0322 11.9832 10.158 12.0249ZM13.158 12.0249C13.2203 12.0457 13.278 12.0786 13.3276 12.1216C13.3772 12.1647 13.4179 12.2171 13.4472 12.2759C13.4765 12.3347 13.494 12.3987 13.4986 12.4643C13.5032 12.5298 13.4949 12.5956 13.474 12.6579L12.474 15.6579C12.4552 15.7225 12.4235 15.7826 12.3809 15.8346C12.3383 15.8867 12.2856 15.9296 12.2261 15.9608C12.1665 15.992 12.1012 16.0109 12.0342 16.0163C11.9671 16.0217 11.8997 16.0135 11.8359 15.9923C11.7721 15.971 11.7132 15.9371 11.6628 15.8925C11.6124 15.848 11.5716 15.7937 11.5426 15.733C11.5137 15.6723 11.4973 15.6064 11.4945 15.5392C11.4916 15.472 11.5023 15.4049 11.526 15.3419L12.526 12.3419C12.5678 12.2161 12.6578 12.112 12.7764 12.0525C12.8949 11.9931 13.0322 11.9832 13.158 12.0249ZM13.405 5.02692C13.1973 3.98008 12.6602 3.02713 11.8722 2.3074C11.0842 1.58767 10.0866 1.13891 9.02524 1.02673C7.96392 0.914554 6.89454 1.14484 5.97346 1.68393C5.05239 2.22302 4.32792 3.04263 3.906 4.02292C3.43284 3.96841 2.95353 4.01105 2.49742 4.14823C2.04131 4.28541 1.61799 4.51423 1.2534 4.8207C0.888798 5.12717 0.590586 5.50482 0.37702 5.93055C0.163454 6.35628 0.0390277 6.82111 0.0113585 7.2966C-0.0163107 7.77209 0.0533598 8.24822 0.216104 8.69585C0.378849 9.14347 0.631243 9.55317 0.957834 9.89986C1.28442 10.2465 1.67834 10.5229 2.11546 10.7121C2.55258 10.9012 3.02371 10.9992 3.5 10.9999H13C13.7611 11.0008 14.4941 10.7123 15.0505 10.193C15.6069 9.67365 15.9451 8.96224 15.9966 8.20287C16.048 7.44351 15.809 6.69296 15.3278 6.10326C14.8466 5.51356 14.1593 5.1288 13.405 5.02692ZM8.5 1.99992C9.48396 1.99972 10.4335 2.36219 11.167 3.01804C11.9005 3.67388 12.3665 4.57707 12.476 5.55492C12.4896 5.67778 12.5482 5.79125 12.6406 5.87343C12.7329 5.95561 12.8524 6.00067 12.976 5.99992H13C13.5304 5.99992 14.0391 6.21064 14.4142 6.58571C14.7893 6.96078 15 7.46949 15 7.99992C15 8.53036 14.7893 9.03906 14.4142 9.41414C14.0391 9.78921 13.5304 9.99992 13 9.99992H3.5C3.14607 9.99975 2.79622 9.92442 2.47358 9.77894C2.15094 9.63345 1.86286 9.42111 1.62841 9.15598C1.39397 8.89084 1.21849 8.57894 1.11358 8.24092C1.00868 7.9029 0.976743 7.54646 1.01989 7.19517C1.06303 6.84388 1.18027 6.50576 1.36385 6.20317C1.54744 5.90058 1.79318 5.64041 2.08482 5.43989C2.37646 5.23937 2.70735 5.10305 3.05561 5.03996C3.40386 4.97687 3.76155 4.98845 4.105 5.07392C4.22753 5.10448 4.35708 5.08755 4.46764 5.02652C4.5782 4.96549 4.66156 4.86489 4.701 4.74492C4.96528 3.9461 5.47461 3.25089 6.15662 2.7581C6.83862 2.26532 7.65859 2.00002 8.5 1.99992Z" fill="black"/>
</g>
<defs>
<clipPath id="clip0">
<rect width="16" height="16" fill="white"/>
</clipPath>
</defs>
</svg>
