<svg width="17" height="17" viewBox="0 0 17 17" fill="none" xmlns="http://www.w3.org/2000/svg">
<path fill-rule="evenodd" clip-rule="evenodd" d="M11.5635 10.5534L15.3744 14.3642C15.5083 14.4982 15.5835 14.68 15.5835 14.8695C15.5834 15.059 15.5081 15.2407 15.374 15.3746C15.24 15.5086 15.0582 15.5838 14.8687 15.5837C14.6792 15.5837 14.4975 15.5083 14.3636 15.3743L10.5527 11.5634C9.41354 12.4458 7.98099 12.861 6.5465 12.7246C5.11202 12.5883 3.78337 11.9105 2.83084 10.8293C1.87831 9.74812 1.37345 8.34464 1.41897 6.90441C1.46449 5.46418 2.05696 4.09538 3.07587 3.07648C4.09477 2.05757 5.46357 1.4651 6.9038 1.41958C8.34403 1.37406 9.74751 1.87892 10.8287 2.83145C11.9099 3.78398 12.5877 5.11263 12.724 6.54712C12.8604 7.9816 12.4452 9.41415 11.5628 10.5534H11.5635ZM7.08333 11.3332C8.2105 11.3332 9.29151 10.8855 10.0885 10.0884C10.8856 9.29141 11.3333 8.2104 11.3333 7.08323C11.3333 5.95606 10.8856 4.87506 10.0885 4.07803C9.29151 3.281 8.2105 2.83323 7.08333 2.83323C5.95616 2.83323 4.87516 3.281 4.07813 4.07803C3.2811 4.87506 2.83333 5.95606 2.83333 7.08323C2.83333 8.2104 3.2811 9.29141 4.07813 10.0884C4.87516 10.8855 5.95616 11.3332 7.08333 11.3332V11.3332Z" fill="black"/>
</svg>
