<svg width="14" height="14" viewBox="0 0 14 14" fill="none" xmlns="http://www.w3.org/2000/svg">
<path d="M6.69025 1.00256C6.73089 0.961813 6.77917 0.929488 6.83232 0.907432C6.88547 0.885376 6.94245 0.874023 7 0.874023C7.05755 0.874023 7.11453 0.885376 7.16768 0.907432C7.22083 0.929488 7.26911 0.961813 7.30975 1.00256L8.62225 2.31506C8.66293 2.35573 8.69519 2.40402 8.71721 2.45717C8.73922 2.51032 8.75055 2.56728 8.75055 2.62481C8.75055 2.68233 8.73922 2.73929 8.71721 2.79244C8.69519 2.84559 8.66293 2.89388 8.62225 2.93456C8.58157 2.97523 8.53328 3.0075 8.48014 3.02951C8.42699 3.05153 8.37003 3.06286 8.3125 3.06286C8.25497 3.06286 8.19801 3.05153 8.14486 3.02951C8.09172 3.0075 8.04343 2.97523 8.00275 2.93456L7.4375 2.36843V3.93731C7.4375 4.05334 7.39141 4.16462 7.30936 4.24666C7.22731 4.32871 7.11603 4.37481 7 4.37481C6.88397 4.37481 6.77269 4.32871 6.69064 4.24666C6.60859 4.16462 6.5625 4.05334 6.5625 3.93731V2.36843L5.99725 2.93456C5.95657 2.97523 5.90828 3.0075 5.85514 3.02951C5.80199 3.05153 5.74503 3.06286 5.6875 3.06286C5.62997 3.06286 5.57301 3.05153 5.51986 3.02951C5.46672 3.0075 5.41843 2.97523 5.37775 2.93456C5.33707 2.89388 5.30481 2.84559 5.28279 2.79244C5.26078 2.73929 5.24945 2.68233 5.24945 2.62481C5.24945 2.56728 5.26078 2.51032 5.28279 2.45717C5.30481 2.40402 5.33707 2.35573 5.37775 2.31506L6.69025 1.00256ZM2.05012 3.79993C2.13217 3.71791 2.24343 3.67184 2.35944 3.67184C2.47545 3.67184 2.58671 3.71791 2.66875 3.79993L3.906 5.03718C3.98569 5.11969 4.02979 5.23021 4.0288 5.34492C4.0278 5.45963 3.98179 5.56936 3.90067 5.65048C3.81955 5.73159 3.70982 5.7776 3.59511 5.7786C3.4804 5.7796 3.36989 5.7355 3.28737 5.65581L2.05012 4.41856C1.96811 4.33651 1.92203 4.22525 1.92203 4.10924C1.92203 3.99323 1.96811 3.88197 2.05012 3.79993ZM11.9499 3.79993C12.0319 3.88197 12.078 3.99323 12.078 4.10924C12.078 4.22525 12.0319 4.33651 11.9499 4.41856L10.7126 5.65581C10.6723 5.69759 10.624 5.73092 10.5706 5.75385C10.5172 5.77678 10.4598 5.78885 10.4017 5.78935C10.3436 5.78986 10.286 5.77879 10.2323 5.75679C10.1785 5.73479 10.1297 5.70231 10.0886 5.66123C10.0475 5.62015 10.015 5.5713 9.99302 5.51754C9.97102 5.46377 9.95995 5.40616 9.96045 5.34807C9.96096 5.28998 9.97303 5.23257 9.99596 5.17919C10.0189 5.12581 10.0522 5.07754 10.094 5.03718L11.3313 3.79993C11.4133 3.71791 11.5246 3.67184 11.6406 3.67184C11.7566 3.67184 11.8678 3.71791 11.9499 3.79993ZM10.2454 10.0623C10.4599 9.53104 10.5407 8.95524 10.4808 8.38544C10.4208 7.81565 10.2219 7.26929 9.90146 6.79432C9.58103 6.31936 9.1489 5.93032 8.64301 5.66137C8.13712 5.39241 7.57294 5.25176 7 5.25176C6.42706 5.25176 5.86288 5.39241 5.35699 5.66137C4.8511 5.93032 4.41897 6.31936 4.09854 6.79432C3.77811 7.26929 3.57919 7.81565 3.51922 8.38544C3.45926 8.95524 3.54009 9.53104 3.75462 10.0623H0.4375C0.321468 10.0623 0.210188 10.1084 0.128141 10.1904C0.0460936 10.2725 0 10.3838 0 10.4998C0 10.6158 0.0460936 10.7271 0.128141 10.8092C0.210188 10.8912 0.321468 10.9373 0.4375 10.9373H13.5625C13.6785 10.9373 13.7898 10.8912 13.8719 10.8092C13.9539 10.7271 14 10.6158 14 10.4998C14 10.3838 13.9539 10.2725 13.8719 10.1904C13.7898 10.1084 13.6785 10.0623 13.5625 10.0623H10.2463H10.2454ZM0 8.74981C0 8.63377 0.0460936 8.52249 0.128141 8.44045C0.210188 8.3584 0.321468 8.31231 0.4375 8.31231H2.1875C2.30353 8.31231 2.41481 8.3584 2.49686 8.44045C2.57891 8.52249 2.625 8.63377 2.625 8.74981C2.625 8.86584 2.57891 8.97712 2.49686 9.05917C2.41481 9.14121 2.30353 9.18731 2.1875 9.18731H0.4375C0.321468 9.18731 0.210188 9.14121 0.128141 9.05917C0.0460936 8.97712 0 8.86584 0 8.74981ZM11.375 8.74981C11.375 8.63377 11.4211 8.52249 11.5031 8.44045C11.5852 8.3584 11.6965 8.31231 11.8125 8.31231H13.5625C13.6785 8.31231 13.7898 8.3584 13.8719 8.44045C13.9539 8.52249 14 8.63377 14 8.74981C14 8.86584 13.9539 8.97712 13.8719 9.05917C13.7898 9.14121 13.6785 9.18731 13.5625 9.18731H11.8125C11.6965 9.18731 11.5852 9.14121 11.5031 9.05917C11.4211 8.97712 11.375 8.86584 11.375 8.74981Z" fill="#FBDC80"/>
</svg>
