<svg width="14" height="14" viewBox="0 0 14 14" fill="none" xmlns="http://www.w3.org/2000/svg">
<g clip-path="url(#clip0_14:957)">
<path d="M6.69025 4.24725C6.73089 4.28799 6.77917 4.32032 6.83232 4.34237C6.88547 4.36443 6.94245 4.37578 7 4.37578C7.05755 4.37578 7.11453 4.36443 7.16768 4.34237C7.22083 4.32032 7.26911 4.28799 7.30975 4.24725L8.62225 2.93475C8.66293 2.89407 8.69519 2.84578 8.71721 2.79264C8.73922 2.73949 8.75055 2.68253 8.75055 2.625C8.75055 2.56747 8.73922 2.51051 8.71721 2.45736C8.69519 2.40422 8.66293 2.35593 8.62225 2.31525C8.58157 2.27457 8.53328 2.24231 8.48014 2.22029C8.42699 2.19828 8.37003 2.18695 8.3125 2.18695C8.25497 2.18695 8.19801 2.19828 8.14486 2.22029C8.09172 2.24231 8.04343 2.27457 8.00275 2.31525L7.4375 2.88138V1.3125C7.4375 1.19647 7.39141 1.08519 7.30936 1.00314C7.22731 0.921094 7.11603 0.875 7 0.875C6.88397 0.875 6.77269 0.921094 6.69064 1.00314C6.60859 1.08519 6.5625 1.19647 6.5625 1.3125V2.88138L5.99725 2.31525C5.95657 2.27457 5.90828 2.24231 5.85514 2.22029C5.80199 2.19828 5.74503 2.18695 5.6875 2.18695C5.62997 2.18695 5.57301 2.19828 5.51986 2.22029C5.46672 2.24231 5.41843 2.27457 5.37775 2.31525C5.33707 2.35593 5.30481 2.40422 5.28279 2.45736C5.26078 2.51051 5.24945 2.56747 5.24945 2.625C5.24945 2.68253 5.26078 2.73949 5.28279 2.79264C5.30481 2.84578 5.33707 2.89407 5.37775 2.93475L6.69025 4.24725ZM2.05012 3.801C2.13217 3.71898 2.24343 3.67291 2.35944 3.67291C2.47545 3.67291 2.58671 3.71898 2.66875 3.801L3.906 5.03737C3.98569 5.11989 4.02979 5.2304 4.0288 5.34511C4.0278 5.45982 3.98179 5.56955 3.90067 5.65067C3.81955 5.73179 3.70982 5.7778 3.59511 5.7788C3.4804 5.77979 3.36989 5.73569 3.28737 5.656L2.05012 4.41875C1.96811 4.33671 1.92203 4.22545 1.92203 4.10944C1.92203 3.99343 1.96811 3.88217 2.05012 3.80012V3.801ZM11.9499 3.801C12.0316 3.88301 12.0775 3.99408 12.0775 4.10987C12.0775 4.22567 12.0316 4.33674 11.9499 4.41875L10.7126 5.656C10.6723 5.69779 10.624 5.73112 10.5706 5.75404C10.5172 5.77697 10.4598 5.78904 10.4017 5.78955C10.3436 5.79005 10.286 5.77898 10.2323 5.75698C10.1785 5.73499 10.1297 5.7025 10.0886 5.66142C10.0475 5.62035 10.015 5.5715 9.99302 5.51773C9.97102 5.46396 9.95995 5.40635 9.96045 5.34826C9.96096 5.29017 9.97303 5.23276 9.99596 5.17939C10.0189 5.12601 10.0522 5.07773 10.094 5.03737L11.3313 3.80012C11.4133 3.71811 11.5246 3.67203 11.6406 3.67203C11.7566 3.67203 11.8678 3.71811 11.9499 3.80012V3.801ZM10.2454 10.0625C10.4599 9.53124 10.5407 8.95543 10.4808 8.38564C10.4208 7.81584 10.2219 7.26948 9.90146 6.79452C9.58103 6.31956 9.1489 5.93052 8.64301 5.66156C8.13712 5.3926 7.57294 5.25195 7 5.25195C6.42706 5.25195 5.86288 5.3926 5.35699 5.66156C4.8511 5.93052 4.41897 6.31956 4.09854 6.79452C3.77811 7.26948 3.57919 7.81584 3.51922 8.38564C3.45926 8.95543 3.54009 9.53124 3.75462 10.0625H0.4375C0.321468 10.0625 0.210188 10.1086 0.128141 10.1906C0.0460936 10.2727 0 10.384 0 10.5C0 10.616 0.0460936 10.7273 0.128141 10.8094C0.210188 10.8914 0.321468 10.9375 0.4375 10.9375H13.5625C13.6785 10.9375 13.7898 10.8914 13.8719 10.8094C13.9539 10.7273 14 10.616 14 10.5C14 10.384 13.9539 10.2727 13.8719 10.1906C13.7898 10.1086 13.6785 10.0625 13.5625 10.0625H10.2463H10.2454ZM0 8.75C0 8.63397 0.0460936 8.52269 0.128141 8.44064C0.210188 8.35859 0.321468 8.3125 0.4375 8.3125H2.1875C2.30353 8.3125 2.41481 8.35859 2.49686 8.44064C2.57891 8.52269 2.625 8.63397 2.625 8.75C2.625 8.86603 2.57891 8.97731 2.49686 9.05936C2.41481 9.14141 2.30353 9.1875 2.1875 9.1875H0.4375C0.321468 9.1875 0.210188 9.14141 0.128141 9.05936C0.0460936 8.97731 0 8.86603 0 8.75ZM11.375 8.75C11.375 8.63397 11.4211 8.52269 11.5031 8.44064C11.5852 8.35859 11.6965 8.3125 11.8125 8.3125H13.5625C13.6785 8.3125 13.7898 8.35859 13.8719 8.44064C13.9539 8.52269 14 8.63397 14 8.75C14 8.86603 13.9539 8.97731 13.8719 9.05936C13.7898 9.14141 13.6785 9.1875 13.5625 9.1875H11.8125C11.6965 9.1875 11.5852 9.14141 11.5031 9.05936C11.4211 8.97731 11.375 8.86603 11.375 8.75Z" fill="#F69797" fill-opacity="0.75"/>
</g>
<defs>
<clipPath id="clip0_14:957">
<rect width="14" height="14" fill="white"/>
</clipPath>
</defs>
</svg>
