<svg width="18" height="18" viewBox="0 0 18 18" fill="none" xmlns="http://www.w3.org/2000/svg">
<g clip-path="url(#clip0_118:39)">
<path d="M8.77778 5.27775C9.85038 5.27418 10.9022 5.57337 11.8124 6.14092C12.7225 6.70847 13.454 7.52134 13.9228 8.48608C12.9603 10.4519 10.9886 11.6944 8.77778 11.6944C6.56695 11.6944 4.59528 10.4519 3.63278 8.48608C4.10156 7.52134 4.83307 6.70847 5.74321 6.14092C6.65335 5.57337 7.70519 5.27418 8.77778 5.27775V5.27775ZM8.77778 4.11108C5.86111 4.11108 3.37028 5.92525 2.36111 8.48608C3.37028 11.0469 5.86111 12.8611 8.77778 12.8611C11.6944 12.8611 14.1853 11.0469 15.1944 8.48608C14.1853 5.92525 11.6944 4.11108 8.77778 4.11108ZM8.77778 7.02775C9.16455 7.02775 9.53549 7.1814 9.80898 7.45489C10.0825 7.72838 10.2361 8.09931 10.2361 8.48608C10.2361 8.87286 10.0825 9.24379 9.80898 9.51728C9.53549 9.79077 9.16455 9.94442 8.77778 9.94442C8.39101 9.94442 8.02007 9.79077 7.74658 9.51728C7.47309 9.24379 7.31945 8.87286 7.31945 8.48608C7.31945 8.09931 7.47309 7.72838 7.74658 7.45489C8.02007 7.1814 8.39101 7.02775 8.77778 7.02775V7.02775ZM8.77778 5.86108C7.33111 5.86108 6.15278 7.03942 6.15278 8.48608C6.15278 9.93275 7.33111 11.1111 8.77778 11.1111C10.2244 11.1111 11.4028 9.93275 11.4028 8.48608C11.4028 7.03942 10.2244 5.86108 8.77778 5.86108Z" fill="black"/>
</g>
<defs>
<clipPath id="clip0_118:39">
<rect width="14" height="14" fill="white" transform="translate(1.77777 1.77783)"/>
</clipPath>
</defs>
</svg>
