<svg width="19" height="18" viewBox="0 0 19 18" fill="none" xmlns="http://www.w3.org/2000/svg">
<path d="M13.2222 4.03711C12.6737 4.03711 12.1478 4.25497 11.76 4.64278C11.3722 5.03058 11.1543 5.55655 11.1543 6.10498C11.1543 6.21467 11.1107 6.31986 11.0332 6.39742C10.9556 6.47498 10.8504 6.51855 10.7407 6.51855C10.631 6.51855 10.5258 6.47498 10.4483 6.39742C10.3707 6.31986 10.3271 6.21467 10.3271 6.10498C10.3271 5.5324 10.4969 4.97268 10.815 4.49659C11.1332 4.02051 11.5853 3.64945 12.1143 3.43033C12.6433 3.21122 13.2254 3.15388 13.787 3.26559C14.3485 3.37729 14.8644 3.65302 15.2693 4.05789C15.6741 4.46277 15.9499 4.97861 16.0616 5.54019C16.1733 6.10177 16.1159 6.68386 15.8968 7.21286C15.6777 7.74185 15.3066 8.19399 14.8305 8.5121C14.3545 8.83021 13.7947 9 13.2222 9H3.29639C3.1867 9 3.08151 8.95643 3.00395 8.87887C2.92639 8.80131 2.88281 8.69611 2.88281 8.58642C2.88281 8.47674 2.92639 8.37154 3.00395 8.29398C3.08151 8.21642 3.1867 8.17285 3.29639 8.17285H13.2222C13.7706 8.17285 14.2966 7.95499 14.6844 7.56719C15.0722 7.17938 15.29 6.65341 15.29 6.10498C15.29 5.55655 15.0722 5.03058 14.6844 4.64278C14.2966 4.25497 13.7706 4.03711 13.2222 4.03711V4.03711ZM7.43213 4.86426C7.21275 4.86426 7.00237 4.9514 6.84725 5.10652C6.69212 5.26164 6.60498 5.47203 6.60498 5.69141C6.60498 5.80109 6.56141 5.90629 6.48385 5.98385C6.40629 6.06141 6.30109 6.10498 6.1914 6.10498C6.08172 6.10498 5.97652 6.06141 5.89896 5.98385C5.8214 5.90629 5.77783 5.80109 5.77783 5.69141C5.77783 5.36422 5.87485 5.04438 6.05663 4.77233C6.23841 4.50028 6.49677 4.28825 6.79906 4.16304C7.10134 4.03783 7.43396 4.00507 7.75486 4.0689C8.07577 4.13273 8.37053 4.29028 8.60189 4.52164C8.83325 4.753 8.99081 5.04777 9.05464 5.36867C9.11847 5.68957 9.08571 6.0222 8.9605 6.32448C8.83529 6.62676 8.62325 6.88513 8.3512 7.0669C8.07916 7.24868 7.75932 7.3457 7.43213 7.3457H3.29639C3.1867 7.3457 3.08151 7.30213 3.00395 7.22457C2.92639 7.14701 2.88281 7.04182 2.88281 6.93213C2.88281 6.82244 2.92639 6.71725 3.00395 6.63969C3.08151 6.56213 3.1867 6.51855 3.29639 6.51855H7.43213C7.6515 6.51855 7.86189 6.43141 8.01701 6.27629C8.17213 6.12117 8.25928 5.91078 8.25928 5.69141C8.25928 5.47203 8.17213 5.26164 8.01701 5.10652C7.86189 4.9514 7.6515 4.86426 7.43213 4.86426V4.86426ZM2.88281 10.2407C2.88281 10.131 2.92639 10.0258 3.00395 9.94828C3.08151 9.87072 3.1867 9.82715 3.29639 9.82715H11.6026C12.0934 9.82715 12.5732 9.97268 12.9812 10.2453C13.3893 10.518 13.7073 10.9056 13.8952 11.359C14.083 11.8124 14.1321 12.3113 14.0364 12.7927C13.9406 13.2741 13.7043 13.7162 13.3573 14.0632C13.0102 14.4103 12.5681 14.6466 12.0867 14.7424C11.6054 14.8381 11.1064 14.789 10.653 14.6011C10.1996 14.4133 9.81203 14.0953 9.53936 13.6872C9.2667 13.2791 9.12116 12.7994 9.12116 12.3086C9.12116 12.1989 9.16474 12.0937 9.2423 12.0162C9.31986 11.9386 9.42505 11.895 9.53474 11.895C9.64442 11.895 9.74962 11.9386 9.82718 12.0162C9.90474 12.0937 9.94831 12.1989 9.94831 12.3086C9.94831 12.6358 10.0453 12.9556 10.2271 13.2277C10.4089 13.4997 10.6673 13.7118 10.9695 13.837C11.2718 13.9622 11.6044 13.9949 11.9253 13.9311C12.2462 13.8673 12.541 13.7097 12.7724 13.4784C13.0037 13.247 13.1613 12.9522 13.2251 12.6313C13.2889 12.3104 13.2562 11.9778 13.131 11.6755C13.0058 11.3732 12.7937 11.1149 12.5217 10.9331C12.2496 10.7513 11.9298 10.6543 11.6026 10.6543H3.29639C3.1867 10.6543 3.08151 10.6107 3.00395 10.5332C2.92639 10.4556 2.88281 10.3504 2.88281 10.2407Z" fill="#2F5374" fill-opacity="0.6"/>
</svg>
